<?xml version="1.0" standalone="no"?>
<!DOCTYPE svg PUBLIC "-//W3C//DTD SVG 20010904//EN"
 "http://www.w3.org/TR/2001/REC-SVG-20010904/DTD/svg10.dtd">
<svg version="1.0" xmlns="http://www.w3.org/2000/svg"
 width="500.000000pt" height="500.000000pt" viewBox="0 0 500.000000 500.000000"
 preserveAspectRatio="xMidYMid meet">
<metadata>
Created by potrace 1.11, written by Peter Selinger 2001-2013
</metadata>
<g transform="translate(0.000000,500.000000) scale(0.100000,-0.100000)"
fill="#000000" stroke="none">
<path d="M2315 4924 c-16 -2 -73 -9 -125 -15 -198 -22 -445 -89 -650 -176
-417 -178 -792 -490 -1050 -873 -167 -249 -288 -534 -353 -830 -41 -186 -52
-292 -52 -515 0 -223 11 -329 52 -515 133 -609 496 -1142 1013 -1490 305 -205
663 -340 1040 -392 123 -17 487 -17 610 0 701 97 1312 475 1700 1052 167 249
288 534 353 830 41 186 52 292 52 515 0 223 -11 329 -52 515 -133 609 -496
1142 -1013 1490 -296 199 -642 332 -1001 385 -99 15 -460 28 -524 19z m695
-729 c479 -67 902 -252 1223 -537 l49 -43 -286 -208 -286 -209 -67 60 c-138
121 -274 199 -447 257 -271 91 -662 108 -994 44 -616 -119 -929 -525 -881
-1143 41 -518 376 -838 977 -932 140 -22 433 -29 588 -15 371 35 619 129 801
304 l63 60 0 154 0 153 -600 0 -600 0 0 295 0 295 940 0 940 0 0 -577 0 -578
-73 -82 c-158 -179 -319 -297 -562 -414 -319 -153 -653 -225 -1082 -236 -522
-13 -909 60 -1278 242 -435 214 -717 568 -819 1026 -90 407 -44 855 124 1189
97 193 264 390 439 519 306 225 705 356 1206 395 111 9 515 -4 625 -19z"/>
</g>
</svg>
