<?xml version="1.0" standalone="no"?>
<!DOCTYPE svg PUBLIC "-//W3C//DTD SVG 20010904//EN"
 "http://www.w3.org/TR/2001/REC-SVG-20010904/DTD/svg10.dtd">
<svg version="1.0" xmlns="http://www.w3.org/2000/svg"
 width="200.000000pt" height="200.000000pt" viewBox="0 0 200.000000 200.000000"
 preserveAspectRatio="xMidYMid meet">
<metadata>
Created by potrace 1.11, written by Peter Selinger 2001-2013
</metadata>
<g transform="translate(0.000000,200.000000) scale(0.100000,-0.100000)"
fill="#000000" stroke="none">
<path d="M975 1924 c-22 -25 -45 -51 -51 -58 -5 -6 -32 -38 -59 -71 -26 -33
-55 -65 -64 -72 -9 -7 -12 -13 -8 -13 4 0 -10 -18 -32 -40 -22 -22 -37 -40
-33 -40 3 0 -3 -8 -14 -18 -10 -10 -35 -38 -54 -62 -19 -24 -45 -54 -57 -66
-13 -13 -23 -26 -23 -29 0 -4 -27 -38 -65 -79 -6 -6 -39 -46 -74 -88 -71 -87
-70 -84 -15 -179 19 -31 34 -60 34 -63 0 -4 11 -24 25 -46 14 -22 23 -40 19
-40 -3 0 2 -7 10 -16 9 -8 14 -19 11 -24 -3 -5 -2 -10 2 -12 7 -3 41 -64 105
-188 13 -25 26 -46 31 -48 4 -2 7 -12 7 -22 0 -10 3 -20 8 -22 4 -1 23 -34 42
-73 19 -38 37 -72 40 -75 3 -3 21 -36 40 -75 18 -38 36 -72 40 -75 3 -3 30
-54 60 -115 30 -60 57 -112 60 -115 3 -3 12 -21 21 -40 l16 -34 36 63 c21 34
37 66 37 72 0 5 5 9 12 9 6 0 9 3 5 6 -3 3 5 23 18 44 13 21 21 41 18 44 -4 3
-1 6 6 6 7 0 9 5 6 10 -3 6 -2 10 2 10 5 0 25 31 44 70 18 38 37 70 42 70 4 0
7 7 7 16 0 9 8 28 19 42 10 15 22 37 25 50 4 12 11 22 15 22 4 0 8 6 8 13 0 6
12 31 26 54 15 24 27 45 27 47 0 3 13 27 29 55 16 27 27 52 24 55 -4 3 -1 6 5
6 7 0 12 4 12 10 0 5 13 31 29 59 16 27 27 52 24 55 -4 3 -1 6 5 6 7 0 12 5
12 11 0 6 16 38 35 71 20 33 37 66 38 72 1 6 4 13 8 16 11 10 72 125 68 130
-7 10 -54 64 -71 82 -10 10 -18 23 -18 28 0 6 -3 10 -7 10 -5 0 -30 28 -58 62
-27 34 -59 72 -70 85 -11 12 -31 37 -45 54 -14 18 -37 46 -52 61 -16 16 -28
33 -28 38 0 4 -3 10 -7 12 -5 2 -42 44 -83 93 -41 50 -79 95 -85 101 -15 17
-78 95 -90 111 -8 11 -19 5 -50 -33z"/>
</g>
</svg>
